<svg xmlns="http://www.w3.org/2000/svg" viewBox="0 0 200 200" width="200" height="200">
  <circle cx="100" cy="100" r="95" fill="#4ade80"/>
  <circle cx="100" cy="110" r="60" fill="#ffffff"/>
  <polygon points="55,70 40,20 75,55" fill="#ffffff"/>
  <polygon points="60,65 48,30 72,55" fill="#fbbf24"/>
  <polygon points="145,70 160,20 125,55" fill="#ffffff"/>
  <polygon points="140,65 152,30 128,55" fill="#fbbf24"/>
  <ellipse cx="78" cy="100" rx="12" ry="14" fill="#1e293b"/>
  <ellipse cx="82" cy="96" rx="4" ry="5" fill="#ffffff"/>
  <ellipse cx="122" cy="100" rx="12" ry="14" fill="#1e293b"/>
  <ellipse cx="126" cy="96" rx="4" ry="5" fill="#ffffff"/>
  <ellipse cx="100" cy="118" rx="6" ry="4" fill="#f472b6"/>
  <path d="M 90 124 Q 100 134 110 124" stroke="#1e293b" stroke-width="2.5" fill="none" stroke-linecap="round"/>
  <line x1="45" y1="108" x2="70" y2="112" stroke="#1e293b" stroke-width="2" stroke-linecap="round"/>
  <line x1="42" y1="118" x2="68" y2="118" stroke="#1e293b" stroke-width="2" stroke-linecap="round"/>
  <line x1="45" y1="128" x2="70" y2="124" stroke="#1e293b" stroke-width="2" stroke-linecap="round"/>
  <line x1="155" y1="108" x2="130" y2="112" stroke="#1e293b" stroke-width="2" stroke-linecap="round"/>
  <line x1="158" y1="118" x2="132" y2="118" stroke="#1e293b" stroke-width="2" stroke-linecap="round"/>
  <line x1="155" y1="128" x2="130" y2="124" stroke="#1e293b" stroke-width="2" stroke-linecap="round"/>
  <text x="100" y="178" text-anchor="middle" font-family="Arial, sans-serif" font-size="16" font-weight="bold" fill="#052e16">CAT TOOL</text>
</svg>
